<?xml version="1.0" encoding="UTF-8"?>
<!DOCTYPE svg PUBLIC "-//W3C//DTD SVG 1.1//EN" "http://www.w3.org/Graphics/SVG/1.1/DTD/svg11.dtd">
<!-- Creator: CorelDRAW 2019 (64-Bit) -->
<svg xmlns="http://www.w3.org/2000/svg" xml:space="preserve" width="176.536mm" height="47.2836mm" version="1.1" style="shape-rendering:geometricPrecision; text-rendering:geometricPrecision; image-rendering:optimizeQuality; fill-rule:evenodd; clip-rule:evenodd"
viewBox="0 0 176.5362 47.2836"
 xmlns:xlink="http://www.w3.org/1999/xlink"
 xmlns:xodm="http://www.corel.com/coreldraw/odm/2003">
 <defs>
  <style type="text/css">
   <![CDATA[
    .fil0 {fill:#056254}
   ]]>
  </style>
 </defs>
 <g id="Layer_x0020_1">
  <metadata id="CorelCorpID_0Corel-Layer"/>
  <g id="_892818160">
   <path class="fil0" d="M140.1587 1.5478l14.4379 0 -1.7077 8.3925c4.4108,-6.8998 9.4619,-8.8886 15.6491,-9.3158 2.1344,-0.069 4.7665,0.2136 7.113,0.5684l-2.7755 11.0254c-2.2755,-0.5693 -4.6929,-0.9956 -6.8262,-0.9956 -8.535,-0.1412 -14.867,5.616 -17.0725,13.8651l-4.9785 18.9216 -14.9358 0c3.6988,-14.1534 8.6075,-29.5858 11.0962,-42.4616z"/>
   <path class="fil0" d="M99.1062 20.4073c2.4893,-1.2087 11.1676,-1.077 16.7864,-1.7887 6.4721,-0.782 15.5018,-4.3383 15.2884,-9.7443 -0.3543,-5.7609 -5.4738,-7.067 -10.2382,-6.4262 -11.2385,1.6355 -18.5643,8.9978 -21.8366,17.9592zm-1.3903 3.6749l0 0c-0.2844,2.4886 -0.601,5.1335 -0.3883,7.1266 0.9257,7.0402 7.0981,10.3329 13.7134,10.5475 5.5077,0.1303 12.2242,-3.1659 15.8762,-7.269 0.6903,-0.7763 1.4833,-0.5234 1.9505,0.0958 0.358,0.4713 0.217,1.5411 -0.1128,1.8666 -5.7363,5.6954 -11.6332,8.9092 -19.8334,8.9801 -9.3173,0.0709 -20.9819,-3.4819 -22.4041,-13.154 -0.2136,-1.1383 -0.2136,-2.4203 -0.0713,-3.7712 1.8488,-17.9174 18.2089,-27.5966 34.2832,-28.4505 7.6812,-0.4266 18.7771,1.5655 18.1371,9.8867 -0.6399,8.7487 -13.8691,11.8078 -22.4758,12.0205 -7.2551,0.214 -16.1855,0.1819 -18.6747,2.1209z"/>
   <path class="fil0" d="M89.6913 34.1981l-2.4154 9.2448c-4.0548,0.8544 -9.3205,1.6364 -14.1573,1.4947 -14.367,-0.2836 -24.8939,-6.9007 -24.254,-20.5576 0.7814,-15.7169 16.3595,-23.755 31.3673,-23.9681 4.9795,0 9.5303,0.4966 14.5806,1.7057l-4.4814 8.8906c-3.2711,-0.9248 -7.6808,-1.7781 -12.0914,-1.351 -6.8992,0.4971 -13.2296,4.1956 -15.0786,11.4512 -2.4178,9.1039 2.8447,15.5081 12.1628,15.5081 4.9071,0.0005 9.674,-0.9943 14.3674,-2.4184z"/>
   <path class="fil0" d="M28.9487 0.5527c12.0206,0 21.0738,2.7607 21.9371,12.7416 0.3319,3.8393 -1.0658,7.2634 -2.1327,11.3185l-5.0098 19.4699c-9.6017,0 -17.4261,0.2126 -26.1034,0.9233 -8.0372,0.0005 -17.6399,-1.7053 -17.6399,-11.9477 0.1677,-16.7379 26.1037,-15.2217 37.1281,-15.2217 2.348,-6.6857 -3.1302,-9.3886 -10.8109,-9.3886 -6.9705,0 -12.711,1.9912 -18.3303,3.8407l1.9707 -9.0331c5.4774,-1.7782 12.5184,-2.7029 18.9911,-2.7029zm6.5434 23.97l0 0c-6.056,0 -23.1713,-1.4284 -23.1713,7.8245 0,4.6222 4.8367,5.3118 8.891,5.3118 10.6534,0 12.315,-3.7195 14.2803,-13.1363z"/>
   <path class="fil0" d="M170.6308 35.4039c-1.633,0 -3.0552,0.6398 -4.123,1.7096 -1.1352,1.2088 -1.7788,2.7 -1.7788,4.2636 0,1.5679 0.6436,2.9896 1.7102,4.128 1.1364,1.1378 2.6284,1.7785 4.1916,1.7785 1.5642,0 3.0599,-0.6402 4.2001,-1.7785 1.14,-1.1384 1.7053,-2.5601 1.7053,-4.128 0,-1.6326 -0.5653,-3.1257 -1.7053,-4.1928 -1.1389,-1.1406 -2.6359,-1.7804 -4.2001,-1.7804zm5.3401 5.9732l0 0c0,1.4237 -0.5701,2.7056 -1.5668,3.6998 -0.9954,0.9965 -2.4186,1.566 -3.7733,1.566 -1.4198,0 -2.772,-0.5695 -3.7675,-1.566 -0.9954,-0.9942 -1.5617,-2.3455 -1.5617,-3.6998 0,-1.4186 0.5663,-2.7714 1.5617,-3.8407 0.9955,-0.9947 2.3477,-1.5617 3.7675,-1.5617 1.4257,0 2.7779,0.567 3.7733,1.6369 0.9967,0.9946 1.5668,2.2728 1.5668,3.7655zm-5.1943 -3.5548l0 0c1.9199,0 2.8454,0.5708 2.8454,1.9217 0,0.9219 -0.6398,1.6331 -1.6365,1.7786l1.5667 3.1314 -1.0703 0 -1.4907 -3.0605 -1.7078 0 0 3.0605 -0.9256 0 0 -6.8317 2.4188 0zm-0.1458 0.6417l0 0c1.3547,0 2.0657,0.3544 2.0657,1.2091 0,1.0656 -0.64,1.351 -2.0657,1.351l-1.3474 0 0 -2.5601 1.3474 0z"/>
  </g>
 </g>
</svg>
