<?xml version="1.0" encoding="UTF-8" standalone="no"?>
<!-- Created with Inkscape (http://www.inkscape.org/) -->

<svg
   xmlns:dc="http://purl.org/dc/elements/1.1/"
   xmlns:cc="http://creativecommons.org/ns#"
   xmlns:rdf="http://www.w3.org/1999/02/22-rdf-syntax-ns#"
   xmlns:svg="http://www.w3.org/2000/svg"
   xmlns="http://www.w3.org/2000/svg"
   xmlns:sodipodi="http://sodipodi.sourceforge.net/DTD/sodipodi-0.dtd"
   xmlns:inkscape="http://www.inkscape.org/namespaces/inkscape"
   width="662.64478"
   height="157.9509"
   viewBox="0 0 175.32477 41.791176"
   version="1.1"
   id="svg8"
   inkscape:version="0.92.4 (5da689c313, 2019-01-14)"
   sodipodi:docname="anker.svg">
  <defs
     id="defs2" />
  <sodipodi:namedview
     id="base"
     pagecolor="#ffffff"
     bordercolor="#666666"
     borderopacity="1.0"
     inkscape:pageopacity="0.0"
     inkscape:pageshadow="2"
     inkscape:zoom="0.7"
     inkscape:cx="-109.04453"
     inkscape:cy="5.966348"
     inkscape:document-units="mm"
     inkscape:current-layer="layer1"
     showgrid="false"
     units="px"
     inkscape:window-width="1920"
     inkscape:window-height="1017"
     inkscape:window-x="-8"
     inkscape:window-y="176"
     inkscape:window-maximized="1" />
  <metadata
     id="metadata5">
    <rdf:RDF>
      <cc:Work
         rdf:about="">
        <dc:format>image/svg+xml</dc:format>
        <dc:type
           rdf:resource="http://purl.org/dc/dcmitype/StillImage" />
        <dc:title></dc:title>
      </cc:Work>
    </rdf:RDF>
  </metadata>
  <g
     inkscape:label="Layer 1"
     inkscape:groupmode="layer"
     id="layer1"
     transform="translate(-13.691019,-88.755416)">
    <g
       style="font-style:normal;font-variant:normal;font-weight:normal;font-stretch:normal;font-size:119.37005615px;line-height:1.25;letter-spacing:0px;word-spacing:0px;fill:#00a7e1;fill-opacity:1;stroke:none;stroke-width:2.48687625"
       id="text817">
      <path
         d="m 180.03972,109.27214 q 3.03088,-2.33144 4.31318,-4.89603 1.39886,-2.56459 1.16572,-5.595475 -0.46629,-4.54632 -3.49717,-7.227484 -3.03088,-2.797735 -7.34406,-2.797735 h -15.85383 v 34.738554 h 6.2949 v -14.22183 h 7.46063 l 8.97607,14.22183 h 7.46063 z m -0.58286,-10.491505 q -0.11657,2.098305 -1.39887,3.264025 -1.16572,1.04915 -3.3806,1.04915 h -9.55893 v -8.160061 h 9.55893 q 2.68117,0.116572 3.73032,1.398868 1.04915,1.282295 1.04915,2.448018 z m -68.77767,11.773805 8.16006,12.93953 h 7.46063 l -11.54066,-18.41843 z m 13.40582,-21.799024 h -8.04349 L 99.488247,110.67101 V 88.755416 h -6.411478 v 31.707674 q 0,0.93258 0.582862,1.86515 0.582861,0.81601 1.981729,1.16573 0.582862,0.11657 1.398868,-0.11658 0.932579,-0.23314 1.632013,-1.04915 z m 13.98867,20.400154 12.47324,0.11657 v -6.17833 h -12.47324 z m 0,0 z m 15.73727,-20.400154 h -24.82991 v 31.707674 q 0.11658,1.28229 0.93258,2.21487 0.93258,0.81601 2.21488,0.81601 h 21.68245 v -6.06176 H 135.39252 V 94.933749 h 18.41843 z m -73.440564,0 V 110.67101 L 63.933689,88.755416 h -8.160062 v 34.738554 h 6.411477 V 97.03205 l 19.001289,25.29619 q 0.699434,0.81601 1.51544,1.04915 0.932578,0.23315 1.51544,0.11658 1.398868,-0.34972 1.981729,-1.16573 0.582862,-0.93257 0.582862,-1.86515 V 88.755416 Z M 30.011144,90.620573 13.691019,123.49397 h 7.110912 L 33.042024,98.780635 45.282118,123.49397 h 6.994339 L 36.189477,90.737145 q -1.049151,-1.865157 -3.147453,-1.865157 -2.098302,0 -3.03088,1.748585 z m 0,0 z m 8.742924,27.977357 h -4.196604 q 0,0 0,-0.11657 l 0.816007,-8.8595 q -0.116573,-0.11657 -0.116573,-0.11657 l -9.092641,11.89038 v 0 h 0.116573 4.196603 q 0,0.11657 0,0.11657 l -0.816006,8.97607 q 0,0.11657 0.116572,0 L 38.87064,118.7145 v -0.11657 z m 0,0 z"
         style="font-style:normal;font-variant:normal;font-weight:normal;font-stretch:normal;fill:#00a7e1;fill-opacity:1;stroke-width:2.48687625"
         id="path819" />
    </g>
  </g>
</svg>
