<?xml version="1.0" encoding="UTF-8"?>
<!DOCTYPE svg PUBLIC "-//W3C//DTD SVG 1.1//EN" "http://www.w3.org/Graphics/SVG/1.1/DTD/svg11.dtd">
<!-- Creator: CorelDRAW 2019 (64-Bit) -->
<svg xmlns="http://www.w3.org/2000/svg" xml:space="preserve" width="175.933mm" height="34.9179mm" version="1.1" style="shape-rendering:geometricPrecision; text-rendering:geometricPrecision; image-rendering:optimizeQuality; fill-rule:evenodd; clip-rule:evenodd"
viewBox="0 0 175.933 34.9179"
 xmlns:xlink="http://www.w3.org/1999/xlink"
 xmlns:xodm="http://www.corel.com/coreldraw/odm/2003">
 <defs>
  <style type="text/css">
   <![CDATA[
    .fil0 {fill:#1D4596}
   ]]>
  </style>
 </defs>
 <g id="Layer_x0020_1">
  <metadata id="CorelCorpID_0Corel-Layer"/>
  <path class="fil0" d="M168.4643 4.4221c0,-1.9981 1.6055,-3.636 3.57,-3.636 0.9505,0 1.8352,0.3931 2.5229,1.0485 0.688,0.6877 1.0484,1.6049 1.0484,2.5547 0,0.9501 -0.3604,1.8669 -1.0484,2.5551 -0.6877,0.6878 -1.5724,1.0811 -2.5229,1.0811 -1.9645,0 -3.57,-1.6051 -3.57,-3.6034zm-0.2943 0l0 0c0,2.1621 1.736,3.9307 3.8973,3.9307 1.0482,0 1.9988,-0.3933 2.7196,-1.1464 0.7209,-0.7536 1.1461,-1.7362 1.1461,-2.7843 0,-1.0485 -0.3935,-2.0311 -1.1461,-2.7842 -0.7537,-0.7536 -1.703,-1.1464 -2.7196,-1.1464 -2.1613,0 -3.8973,1.7687 -3.8973,3.9306zm2.4239 2.3257l0 0 0.5572 0 0 -1.8345 1.2436 0c0.1968,0 0.3604,0 0.4925,0.0658 0.1636,0.0979 0.2614,0.2945 0.2943,0.5566l0.0661 0.7205c0,0.1642 0,0.2621 0,0.328 0.0329,0.0653 0.0329,0.0982 0.0647,0.1307l0.6879 0 0 -0.0984c-0.0978,-0.0323 -0.1307,-0.1307 -0.1638,-0.2619 -0.0329,-0.0654 -0.0329,-0.1967 -0.0329,-0.3604l-0.0319 -0.5569c0,-0.2621 -0.0659,-0.4257 -0.1319,-0.524 -0.0978,-0.0984 -0.2285,-0.1967 -0.3921,-0.2621 0.1967,-0.0982 0.3262,-0.2291 0.4252,-0.3928 0.0988,-0.1641 0.1307,-0.3603 0.1307,-0.6222 0,-0.4917 -0.1968,-0.819 -0.5559,-1.0157 -0.1968,-0.0982 -0.4594,-0.1312 -0.7539,-0.1312l-1.8669 0 -0.0329 4.2585zm0.5241 -2.3257l0 0 1.245 0c0.2614,0 0.4581,-0.0658 0.5889,-0.1637 0.1636,-0.0982 0.2296,-0.2949 0.2296,-0.5898 0,-0.295 -0.0976,-0.5241 -0.2943,-0.6223 -0.099,-0.0655 -0.2628,-0.0983 -0.4594,-0.0983l-1.3098 0 0 1.4741zm-155.1983 5.405l0 0 -15.9197 25.0254 10.8752 0 15.3296 -23.9121 -10.2851 -1.1133zm65.5447 -0.557l0 0 0 -9.2701 -30.9542 0c-4.2256,0.2621 -6.0602,2.2927 -7.4361,3.7339 -1.4738,1.5397 -2.2926,4.7826 -2.2926,4.7826l0 -8.4511 -16.4766 0c-1.2447,0 -2.424,0.524 -3.3083,1.7692 -0.9173,1.2117 -4.6842,7.4355 -4.6842,7.4355l65.152 0zm84.1839 0l0 0 0 -9.2701 -33.1171 0c-4.193,0.2621 -6.0599,2.2927 -7.4356,3.7339 -1.4746,1.5397 -2.2932,4.7826 -2.2932,4.7826l0 0.7536 42.8459 0zm-73.3089 -9.2371l0 0 -9.2699 0 0 9.2371 9.2699 0 0 -9.2371zm30.3653 0l0 0 -9.2374 0 0 9.2371 9.2374 0 0 -9.2371zm0 12.5783l0 0 -9.1066 -0.557 0 10.7113c0,0 -0.033,3.0788 -3.0133,3.0788l-15.5922 0c0,0 -2.6532,-0.2291 -2.6532,-3.0463l0 -12.1851 -9.1715 -0.6552 0 16.4105c1.4741,7.8618 8.5817,8.4842 8.5817,8.4842 0,0 0.7206,0.0328 0.852,0.0654l21.1276 0c0,0 9.0403,-0.7208 9.0403,-9.4339l-0.0648 -12.8727zm-91.357 22.2412l0 0c0,0 0,-23.5188 0.0329,-23.5188l9.0076 0.6553 0 13.757 32.3961 0c1.7034,0 1.8995,-1.5396 1.8995,-1.7686 0.0329,-1.7688 -1.31,-1.9654 -2.0308,-1.9983 0,0 -22.3725,-1.867 -23.1585,-1.9324 0,0 -3.3083,-0.5899 -5.4048,-2.5876 -0.9172,-0.8518 -2.2602,-2.3914 -2.8497,-5.4048 0,0 30.0372,2.391 33.4113,2.7189 5.6339,0.524 8.2544,6.6165 8.4835,7.9924 0,0 0.1966,1.6704 -0.1637,3.7011 0,0 -0.7858,6.8791 -8.3198,8.3858l-43.3036 0zm91.4218 0.0654l0 0 0.0988 -9.2701 32.1665 0c0.7527,0 1.5395,-0.4258 1.5395,-0.4258 0.3274,-0.295 0.59,-0.8514 0.59,-1.3758 0,-1.7688 -1.4746,-1.8342 -2.1954,-1.8671 0,0 -22.6013,-1.8999 -23.3881,-1.9654 0,0 -3.1107,-0.4585 -5.2071,-2.4892 -0.9177,-0.8518 -2.1297,-1.8016 -3.0141,-4.9132 0,0 30.2335,1.7686 33.575,2.0961 5.6665,0.557 8.3202,6.1907 8.5487,8.0582 0,0 0.2297,1.7033 -0.0647,3.7669 0,0 -1.1791,7.8942 -9.4992,8.3854l-33.1499 0z"/>
 </g>
</svg>
