<svg xmlns="http://www.w3.org/2000/svg" width="1000" height="127.41931" viewBox="0 0 1000 127.41931"><defs><style>.a{fill:#0054a6;}</style></defs><title>Artboard 4</title><polygon class="a" points="959.709 3.415 952.307 3.415 952.307 0.433 970.52 0.433 970.52 3.415 963.118 3.415 963.118 24.135 959.709 24.135 959.709 3.415"/><polygon class="a" points="973.947 0.435 979.578 0.435 987.06 20.128 994.383 0.435 1000 0.435 1000 24.131 996.591 24.131 996.591 3.62 996.527 3.62 988.673 24.131 985.304 24.131 977.435 3.62 977.36 3.62 977.36 24.131 973.947 24.131 973.947 0.435"/><rect class="a" x="147.92126" width="33.91717" height="126.67828"/><path class="a" d="M382.11646.11265h41.58276l49.05984,127.30363H435.54741l-9.4865-27.16438H378.28613l-10.0372,27.16438H333.776Zm20.78892,26.2565h-.36718L386.12039,76.17334h31.92266L402.90538,26.36915"/><path class="a" d="M489.27953.10569H547.821c23.7063,0,41.39424,10.39461,41.39424,32.28007,0,16.05055-8.20144,24.98644-22.42624,29.73449v.35734c16.95359,3.47285,25.71073,12.59739,25.71073,28.0971,0,30.45916-26.80727,36.84462-49.60561,36.84462H489.27953Zm33.91724,103.23506H533.229c12.399,0,25.34862-1.82091,25.34862-14.77533,0-13.85777-13.31684-15.14267-24.98144-15.14267H523.19677Zm0-52.89517h9.48643c11.12382,0,22.60983-2.73363,22.60983-13.50012,0-11.66982-10.94024-12.76122-22.24265-12.76122h-9.85361V50.44558"/><polygon class="a" points="638.436 79.444 591.376 0.104 630.413 0.104 655.395 51.173 680.019 0.104 719.047 0.104 672.358 79.444 672.358 127.417 638.436 127.417 638.436 79.444"/><polygon class="a" points="764.406 25.277 733.034 25.277 733.034 0.102 829.7 0.102 829.7 25.277 798.323 25.277 798.323 127.415 764.406 127.415 764.406 25.277"/><polygon class="a" points="845.833 0.103 935.563 0.103 935.563 24.182 879.75 24.182 879.75 50.443 932.462 50.443 932.462 74.521 879.75 74.521 879.75 103.338 937.567 103.338 937.567 127.417 845.833 127.417 845.833 0.103"/><path class="a" d="M70.89068,27.96809C48.32552,29.83867,36.01093,44.66882,36.01093,63.83518c0,18.64065,17.25134,34.29934,33.947,34.29934l3.6517-.02h6.17715s4.07839,0,4.10814-4.00371V54.10558H118.73c0,22.585-.08433,73.31191-.08433,73.31191s-34.39352-.02483-54.35383-.02483C26.77254,127.39266,0,96.36327,0,63.83518,0,28.62311,29.11439-.75919,65.40815.55569l52.09134.15868-.01983,27.25372h-46.589"/><path class="a" d="M272.46865,27.96809c-22.56517,1.87058-34.87479,16.70073-34.87479,35.86709,0,18.64065,17.25134,34.29934,33.942,34.29934l3.6517-.02h6.17715s4.06351,0,4.09326-4.00371V54.10558h34.79042c0,22.585-.07938,73.31191-.07938,73.31191s-34.34885-.02483-54.29924-.02483c-37.51928,0-64.28189-31.02939-64.28189-63.55748,0-35.21207,29.10446-64.59437,65.39327-63.27949l52.04669.15868-.0248,27.25372H272.46865"/></svg>