<?xml version="1.0" encoding="UTF-8" standalone="no"?>
<!-- Created with Inkscape (http://www.inkscape.org/) -->

<svg
   version="1.1"
   id="svg2"
   width="1128"
   height="928"
   viewBox="0 0 1128 928"
   sodipodi:docname="rog-republic-of-gamers-seeklogo.eps"
   xmlns:inkscape="http://www.inkscape.org/namespaces/inkscape"
   xmlns:sodipodi="http://sodipodi.sourceforge.net/DTD/sodipodi-0.dtd"
   xmlns="http://www.w3.org/2000/svg"
   xmlns:svg="http://www.w3.org/2000/svg">
  <defs
     id="defs6" />
  <sodipodi:namedview
     id="namedview4"
     pagecolor="#ffffff"
     bordercolor="#000000"
     borderopacity="0.25"
     inkscape:showpageshadow="2"
     inkscape:pageopacity="0.0"
     inkscape:pagecheckerboard="0"
     inkscape:deskcolor="#d1d1d1" />
  <g
     id="g8"
     inkscape:groupmode="layer"
     inkscape:label="ink_ext_XXXXXX"
     transform="matrix(1.3333333,0,0,-1.3333333,0,928)">
    <g
       id="g10"
       transform="scale(0.1)">
      <path
         d="m 5257.56,1766.28 h 203.66 v -709.99 h -203.66 v 709.99"
         style="fill:#100f0e;fill-opacity:1;fill-rule:evenodd;stroke:none"
         id="path12" />
      <path
         d="m 2711.78,1056.29 h 780.69 v 709.99 h -203.66 v -605.33 h -373.38 v 605.33 h -203.65 v -605.33 -104.66"
         style="fill:#100f0e;fill-opacity:1;fill-rule:evenodd;stroke:none"
         id="path14" />
      <path
         d="m 994.766,1766.28 h 768.174 l -105.12,-104.58 -459.39,-0.07 v -198.02 h 509.16 8.47 l 0.01,-104.66 h -0.01 v 0 h -8.47 -509.16 v -198 h 455.41 c 0.11,0 0.24,-0.03 0.39,-0.08 h 3.59 l 105.12,-104.58 H 994.766 v 0 709.99"
         style="fill:#100f0e;fill-opacity:1;fill-rule:evenodd;stroke:none"
         id="path16" />
      <path
         d="M 4.73438,1242.98 208.398,1033.65 v 627.97 h 435.614 c 6.621,0 11.316,-4.7 11.316,-11.32 V 1384.41 H 286.793 l 575.023,-586.683 0.153,246.133 -209.762,216.09 h 209.766 l 0.347,403.5 c 0.012,6.75 0.043,13.37 -0.058,19.75 -0.407,25.68 -2.227,47.33 -6.887,56.83 -7.035,14.33 -21.223,26.25 -41.645,26.25 H 4.73438 v -523.3"
         style="fill:#100f0e;fill-opacity:1;fill-rule:evenodd;stroke:none"
         id="path18" />
      <path
         d="m 3294.47,1.19141 h 203.66 V 408.52 l 209.22,-141.43 0.1,0.066 0.1,-0.066 209.22,141.43 V 1.19141 h 203.67 V 708.359 C 3981.45,615.598 3844.59,518.246 3707.45,422.66 3570.32,518.246 3433.46,615.598 3294.47,708.359 V 1.19141"
         style="fill:#100f0e;fill-opacity:1;fill-rule:evenodd;stroke:none"
         id="path20" />
      <path
         d="m 1467.15,1.19141 h 797.68 V 394.375 h -203.66 v -288.52 h -390.35 v 497.84 h 486.53 l 104.66,104.664 H 1467.15 V 1.19141"
         style="fill:#100f0e;fill-opacity:1;fill-rule:evenodd;stroke:none"
         id="path22" />
      <path
         d="m 2073.61,1661.62 h 324.18 c 6.61,0 11.31,-4.7 11.31,-11.32 v -257.41 h -335.49 z m -204.79,-605.33 h 204.76 l 0.09,231.94 541.91,-0.05 0.01,415.87 c 0,35.77 -15.93,62.23 -50.91,62.23 h -695.86 v -709.99"
         style="fill:#100f0e;fill-opacity:1;fill-rule:evenodd;stroke:none"
         id="path24" />
      <path
         d="m 4290.16,1480.58 h 50.91 v -93.09 c 0,-110.4 0,-220.81 0,-331.2 -249.86,0 -499.73,0 -749.59,0 0,236.66 0,473.32 0,709.99 h 650.59 c 30.41,0 48.09,-25.71 48.09,-56.58 z m -495.02,-104.66 h 342.27 v -214.97 h -342.27 z m 11.32,285.7 h 328.12 c 6.22,0 11.31,-5.09 11.31,-11.32 v -26.47 -131.93 -11.32 h -11.31 -328.12 -11.32 v 11.32 158.4 11.32 h 11.32"
         style="fill:#100f0e;fill-opacity:1;fill-rule:evenodd;stroke:none"
         id="path26" />
      <path
         d="m 4457.05,1766.28 h 203.66 v -605.33 h 517.66 l -1.02,-1.1 -104.1,-103.56 h -412.54 v -0.01 h -203.66 v 0.01 104.66 605.33"
         style="fill:#100f0e;fill-opacity:1;fill-rule:evenodd;stroke:none"
         id="path28" />
      <path
         d="m 5574.37,1766.28 h 775.06 l -104.11,-103.57 -1.02,-1.09 h -466.26 v -500.67 h 571.39 l -104.11,-103.57 -1.02,-1.09 h -466.26 v 0 h -203.67 v 0 104.66 500.67 104.66"
         style="fill:#100f0e;fill-opacity:1;fill-rule:evenodd;stroke:none"
         id="path30" />
      <path
         d="m 6916.24,1769.11 h 488.28 c 23.36,0 42.47,-19.12 42.47,-42.48 v -41.44 h 0.01 v -631.73 h -42.48 -204.71 -155.49 -128.08 l -247.18,247.18 v 145 0 0.01 280.98 0.28 42.2 h 42.48 z m 136.31,-115.98 h 190.73 v -495.01 h -190.73 l -179.82,179.82 v 5.58 129.79 179.82 h 179.82"
         style="fill:#100f0e;fill-opacity:1;fill-rule:evenodd;stroke:none"
         id="path32" />
      <path
         d="m 7568.58,1766.28 h 763.74 l -104.1,-103.57 -1.02,-1.09 h -454.96 v -144.26 h 536.46 l -104.09,-105.99 -1.03,-1.12 h -431.34 v -353.96 h -203.66 v 605.33 104.66"
         style="fill:#100f0e;fill-opacity:1;fill-rule:evenodd;stroke:none"
         id="path34" />
      <path
         d="m 3127.44,708.359 c 24.97,0 45.4,-20.429 45.4,-45.402 0,-220.59 0,-441.176 0,-661.76559 -67.89,0 -135.78,0 -203.67,0 V 301.031 H 2609.93 V 1.19141 c -67.88,0 -135.77,0 -203.66,0 0,235.72259 0,471.44559 0,707.16759 240.39,0 480.78,0 721.17,0 z M 2609.93,603.695 h 347.93 c 6.62,0 11.31,-4.691 11.31,-11.312 V 405.691 h -359.24 v 198.004"
         style="fill:#100f0e;fill-opacity:1;fill-rule:evenodd;stroke:none"
         id="path36" />
      <path
         d="m 4368.54,708.359 h 633.53 l -104.1,-103.566 -1.02,-1.098 H 4440.07 V 408.52 h 514.82 V 303.859 H 4440.07 V 105.855 h 456.88 l 1.02,-1.093 104.1,-103.57059 h -562 -99.82 -103.84 V 708.359 h 132.13"
         style="fill:#100f0e;fill-opacity:1;fill-rule:evenodd;stroke:none"
         id="path38" />
      <path
         d="m 5096.33,708.367 h 742.31 c 27.34,0 49.71,-22.367 49.71,-49.707 V 315.176 H 5778 5704.45 L 5985.38,1.17969 H 5727.42 L 5446.48,315.176 h -0.01 l -100.92,112.804 11.66,11.657 h 327.48 v 153.547 c 0,5.781 -4.73,10.511 -10.51,10.511 H 5526.8 5310.5 5299.99 V 593.184 1.19141 h -152.24 -51.42 V 708.367"
         style="fill:#100f0e;fill-opacity:1;fill-rule:evenodd;stroke:none"
         id="path40" />
      <path
         d="m 6071.68,708.359 h 721.7 l -104.1,-103.566 -1.02,-1.098 H 6219.3 V 405.691 h 359.25 203.66 V 301.031 1.19141 h -135.29 -68.37 -471.66 l -1.02,1.09375 -104.1,103.56984 h 576.78 v 195.176 h -359.25 -121.69 -81.97 v 407.328 h 56.04"
         style="fill:#100f0e;fill-opacity:1;fill-rule:evenodd;stroke:none"
         id="path42" />
      <path
         d="m 3983.04,4339.6 c 404.23,257.36 827.09,509.64 1293.25,771.64 579.46,325.67 1158.73,622.15 1646.15,854.5 585.83,279.22 1034.83,465.75 1136.49,498.8 0.05,-2.22 0.09,-4.46 0.12,-6.7 v -12.68 c -2.11,-179.31 -95.69,-393.41 -290.91,-482.69 C 6767.56,5504.84 4335.93,4193.38 3401.86,3480.36 c 150.94,-63.31 767.07,-256.32 1486.98,-300.65 332.33,-20.45 518.37,50.14 642.23,112.97 174.92,88.75 374.75,267.18 565.11,564.57 252.28,394.14 419.77,871.21 419.77,871.21 L 3922.43,3621.11 c 0,0 2261.41,1399.6 3766,2088 -23.51,-154.75 -219.96,-690.59 -476.25,-1239.75 -157.37,-337.19 -360.88,-669.92 -539.02,-943.67 -414.98,-637.76 -786.32,-786.23 -856.01,-805.44 -105.22,-29.02 -646.45,-8.41 -1060.63,51.44 -865,124.96 -1834.78,422.81 -2151.94,619.54 81.6,78.61 660.21,491.12 1378.46,948.37 z m 3412.95,2618.24 h -20.32 c -1107.3,-0.96 -2086.63,-363.57 -2148.97,-396.04 -154.56,-80.47 -513.81,-383.28 -600.77,-467.94 -90.76,-88.34 -532.68,-546.31 -1008.26,-1008.73 -433.86,-421.86 -896.5,-846.62 -1130.34,-1013.56 -173.53,-84.48 -867.63,470.17 -1195.92,487.98 103.17,-37.53 183.19,-231.78 360.43,-570.34 133.83,-255.62 329.06,-616.05 564.98,-897.02 245.66,-292.58 616.67,-567.51 931.79,-695.7 -248.03,247.49 -684.72,811.73 -680.04,943.12 10.91,305.87 719.08,782.56 1467.95,1374.78 413.69,327.18 2340.25,1825.2 4005.16,2209.98 -182.9,22.76 -365.91,32.9 -545.69,33.47 z M 1189.13,3763.52 c -260.72,141.89 -480.642,302.96 -530.864,373.73 -40.848,57.61 -118.293,206.39 -185.594,410.47 -102.695,311.35 -194.285,701.56 -194.285,701.56 0,0 418.843,-538.8 787.563,-972.25 381.45,-448.42 713.2,-791.98 713.2,-791.98 0,0 -315.06,128.85 -590.02,278.47"
         style="fill:#ed1e24;fill-opacity:1;fill-rule:evenodd;stroke:none"
         id="path44" />
      <path
         d="m 8430.54,2011.96 c 7.07,0 12.27,-2.91 15.6,-8.73 3.34,-5.82 5.01,-13.44 5.01,-22.87 v -69.87 c 0,-3.92 -0.43,-7.75 -1.28,-11.48 -0.85,-3.73 -2.16,-7.07 -3.92,-10.01 -1.77,-2.95 -3.9,-5.3 -6.38,-7.07 -2.49,-1.76 -5.43,-2.65 -8.84,-2.65 v 99.91 h -18.44 v -70.07 c 0,-3.93 -0.43,-7.69 -1.28,-11.29 -0.85,-3.6 -2.16,-6.77 -3.92,-9.52 -1.77,-2.75 -3.93,-4.94 -6.48,-6.57 -2.56,-1.64 -5.6,-2.46 -9.13,-2.46 h -16.29 c -3.92,0 -7.33,0.82 -10.21,2.46 -2.87,1.63 -5.23,3.82 -7.06,6.57 -1.83,2.75 -3.17,5.92 -4.03,9.52 -0.85,3.6 -1.27,7.42 -1.27,11.48 v 71.45 c 0,9.42 1.6,16.97 4.81,22.67 3.2,5.69 8.47,8.53 15.8,8.53 v -99.11 h 18.25 v 67.71 c 0,3.93 0.36,7.78 1.08,11.58 0.72,3.8 1.87,7.13 3.44,10.01 1.57,2.88 3.63,5.24 6.18,7.06 2.55,1.84 5.46,2.75 8.73,2.75 z m 20.41,33.76 c 0,-3.01 -0.36,-5.82 -1.08,-8.43 -0.72,-2.62 -1.76,-4.95 -3.14,-6.97 -1.37,-2.03 -2.98,-3.63 -4.8,-4.81 -1.84,-1.18 -3.93,-1.77 -6.29,-1.77 h -58.49 v 24.53 h 73.8 z m -15.11,90.29 c 2.62,-0.13 4.91,-0.85 6.87,-2.16 1.96,-1.31 3.53,-2.94 4.71,-4.9 1.18,-1.97 2.06,-4.32 2.65,-7.07 0.59,-2.75 0.88,-5.69 0.88,-8.83 v -30.23 c 0,-3.14 -0.32,-6.08 -0.98,-8.83 -0.65,-2.75 -1.6,-5.17 -2.84,-7.26 -1.25,-2.1 -2.82,-3.73 -4.72,-4.91 -1.89,-1.18 -4.15,-1.77 -6.77,-1.77 h -58.49 v 2.36 c 0,6.8 1.34,12.23 4.03,16.29 2.68,4.05 6.51,6.08 11.48,6.08 h 43.18 z m -14.13,109.33 c 0.65,-0.13 1.76,-1.28 3.33,-3.44 1.57,-2.16 3.44,-4.84 5.6,-8.04 2.16,-3.21 4.41,-6.71 6.77,-10.5 2.36,-3.8 4.64,-7.5 6.87,-11.09 2.22,-3.6 4.15,-6.88 5.79,-9.82 1.64,-2.94 2.78,-5.07 3.43,-6.38 -0.65,-1.44 -1.79,-3.6 -3.43,-6.47 -1.64,-2.89 -3.57,-6.09 -5.79,-9.62 -2.23,-3.54 -4.51,-7.16 -6.87,-10.89 -2.36,-3.73 -4.61,-7.14 -6.77,-10.21 -2.16,-3.08 -4.03,-5.66 -5.6,-7.75 -1.57,-2.1 -2.68,-3.21 -3.33,-3.34 h -44.56 v 2.35 c 0,6.15 1.31,11.45 3.93,15.9 2.22,4.32 5.56,6.48 10.01,6.48 h 24.93 c 0.52,0 1.57,0.98 3.14,2.94 1.57,1.97 3.2,4.25 4.9,6.87 1.7,2.62 3.4,5.24 5.1,7.85 1.71,2.62 2.89,4.58 3.54,5.89 -0.79,1.18 -2,3.14 -3.63,5.89 -1.64,2.75 -3.37,5.5 -5.2,8.24 -1.83,2.75 -3.47,5.14 -4.91,7.17 -1.44,2.03 -2.42,3.04 -2.94,3.04 h -25.13 c -3.93,0 -7.26,2.29 -10.01,6.87 -2.48,4.32 -3.73,9.62 -3.73,15.9 v 2.16 z m 0.19,83.41 v -46.91 h 13.94 v 74.2 c 2.62,0 4.87,-0.56 6.77,-1.67 1.9,-1.11 3.47,-2.68 4.71,-4.71 1.25,-2.03 2.16,-4.42 2.75,-7.17 0.59,-2.74 0.88,-5.69 0.88,-8.83 v -54.37 c 0,-3.01 -0.36,-5.85 -1.08,-8.54 -0.72,-2.68 -1.76,-5.03 -3.14,-7.06 -1.37,-2.03 -2.98,-3.63 -4.8,-4.81 -1.84,-1.18 -3.93,-1.77 -6.29,-1.77 h -43.18 c -2.22,0 -4.28,0.59 -6.18,1.77 -1.9,1.18 -3.5,2.78 -4.81,4.81 -1.31,2.03 -2.35,4.38 -3.14,7.06 -0.78,2.69 -1.18,5.47 -1.18,8.35 v 54.56 c 0,6.81 1.34,12.23 4.03,16.29 2.68,4.06 6.51,6.09 11.48,6.09 v -74.2 h 13.74 v 46.91 z m 13.74,138.58 c 5.24,0 9.13,-2.16 11.68,-6.48 2.55,-4.32 3.83,-10.01 3.83,-17.08 v -52.4 c 0,-3.01 -0.33,-5.92 -0.98,-8.74 -0.66,-2.81 -1.64,-5.29 -2.95,-7.45 -1.31,-2.16 -2.91,-3.93 -4.81,-5.3 -1.89,-1.38 -4.09,-2.07 -6.57,-2.07 v 74.98 h -13.94 v -52.6 c 0,-2.88 -0.32,-5.66 -0.98,-8.34 -0.65,-2.69 -1.63,-5.07 -2.94,-7.17 -1.31,-2.09 -2.91,-3.76 -4.81,-5 -1.9,-1.24 -4.15,-1.87 -6.77,-1.87 h -12.37 c -2.88,0 -5.39,0.63 -7.55,1.87 -2.16,1.24 -3.93,2.91 -5.3,5 -1.38,2.1 -2.39,4.48 -3.05,7.17 -0.65,2.68 -0.98,5.53 -0.98,8.54 v 53.58 c 0,7.07 1.21,12.73 3.64,16.98 2.41,4.25 6.37,6.38 11.87,6.38 v -74.19 h 13.74 v 50.63 c 0,3.02 0.26,5.93 0.78,8.74 0.53,2.81 1.38,5.3 2.55,7.46 1.18,2.16 2.72,3.92 4.62,5.3 1.9,1.37 4.09,2.06 6.57,2.06 z m -55.15,111.87 c 3.14,0 5.53,-0.75 7.17,-2.25 1.63,-1.51 2.81,-3.31 3.53,-5.4 0.72,-2.09 1.14,-4.28 1.27,-6.58 0.13,-2.29 0.2,-4.22 0.2,-5.79 v -17.27 h 42.98 c 5.5,0 9.43,-1.24 11.78,-3.73 2.36,-2.48 3.53,-7.13 3.53,-13.93 v -7.27 h -58.29 v -37.87 h -2.16 c -5.11,0 -8.61,1.5 -10.5,4.51 -1.9,3.01 -2.85,7.26 -2.85,12.76 v 82.82 z m 70.66,83.23 -44.75,-35.14 v 38.27 h -13.74 v -49.85 h 40.82 c 6.94,0 11.65,-2.16 14.14,-6.48 1.17,-2.09 1.96,-4.51 2.35,-7.26 0.39,-2.74 0.59,-5.56 0.59,-8.44 v -2.55 h -73.41 v 76.55 c 0,6.93 1.34,12.4 4.03,16.39 2.68,3.99 6.51,5.98 11.48,5.98 h 13.93 c 4.71,0 8.41,-1.83 11.09,-5.49 2.69,-3.67 4.16,-8.9 4.42,-15.71 l 29.05,23.56 z m -29.25,113.25 v -46.91 h 13.94 v 74.19 c 2.62,0 4.87,-0.56 6.77,-1.67 1.9,-1.11 3.47,-2.68 4.71,-4.71 1.25,-2.03 2.16,-4.42 2.75,-7.17 0.59,-2.74 0.88,-5.69 0.88,-8.83 v -54.37 c 0,-3.01 -0.36,-5.85 -1.08,-8.53 -0.72,-2.68 -1.76,-5.04 -3.14,-7.07 -1.37,-2.03 -2.98,-3.63 -4.8,-4.81 -1.84,-1.17 -3.93,-1.76 -6.29,-1.76 h -43.18 c -2.22,0 -4.28,0.59 -6.18,1.76 -1.9,1.18 -3.5,2.78 -4.81,4.81 -1.31,2.03 -2.35,4.39 -3.14,7.07 -0.78,2.68 -1.18,5.46 -1.18,8.34 v 54.56 c 0,6.81 1.34,12.24 4.03,16.3 2.68,4.05 6.51,6.08 11.48,6.08 v -74.19 h 13.74 v 46.91 z m 29.05,182.93 h -38.66 v -66.34 h 15.3 c 4.85,0 8.58,-0.72 11.2,-2.16 2.61,-1.45 4.84,-3.67 6.67,-6.68 1.7,-2.74 3.04,-6.05 4.02,-9.91 0.98,-3.86 1.47,-7.88 1.47,-12.07 v -1.96 h -76.74 c -3.8,0 -7.03,0.78 -9.72,2.35 -2.68,1.57 -4.9,3.73 -6.67,6.48 -1.77,2.75 -3.07,5.92 -3.93,9.52 -0.85,3.6 -1.27,7.36 -1.27,11.29 v 102.65 h 98.33 z m -77.72,0 v -66.34 h 18.25 v 66.34 z m 77.92,116.39 -44.75,-35.14 v 38.28 h -13.74 v -49.85 h 40.82 c 6.94,0 11.65,-2.16 14.14,-6.48 1.17,-2.1 1.96,-4.52 2.35,-7.26 0.39,-2.75 0.59,-5.57 0.59,-8.44 v -2.56 h -73.41 v 76.55 c 0,6.94 1.34,12.4 4.03,16.39 2.68,3.99 6.51,5.99 11.48,5.99 h 13.93 c 4.71,0 8.41,-1.84 11.09,-5.5 2.69,-3.66 4.16,-8.9 4.42,-15.7 l 29.05,23.55 z m -70.66,141.71 c 3.14,0 5.53,-0.75 7.17,-2.26 1.63,-1.5 2.81,-3.3 3.53,-5.4 0.72,-2.09 1.14,-4.28 1.27,-6.57 0.13,-2.29 0.2,-4.22 0.2,-5.79 v -17.27 h 42.98 c 5.5,0 9.43,-1.25 11.78,-3.73 2.36,-2.49 3.53,-7.14 3.53,-13.94 v -7.26 h -58.29 v -37.88 h -2.16 c -5.11,0 -8.61,1.5 -10.5,4.51 -1.9,3.01 -2.85,7.27 -2.85,12.76 v 82.83 z m 41.41,83.42 v -46.91 h 13.94 v 74.19 c 2.62,0 4.87,-0.56 6.77,-1.67 1.9,-1.11 3.47,-2.68 4.71,-4.71 1.25,-2.03 2.16,-4.42 2.75,-7.16 0.59,-2.75 0.88,-5.69 0.88,-8.83 v -54.37 c 0,-3.01 -0.36,-5.86 -1.08,-8.54 -0.72,-2.68 -1.76,-5.04 -3.14,-7.07 -1.37,-2.03 -2.98,-3.63 -4.8,-4.81 -1.84,-1.18 -3.93,-1.77 -6.29,-1.77 h -43.18 c -2.22,0 -4.28,0.59 -6.18,1.77 -1.9,1.18 -3.5,2.78 -4.81,4.81 -1.31,2.03 -2.35,4.39 -3.14,7.07 -0.78,2.68 -1.18,5.46 -1.18,8.34 v 54.57 c 0,6.8 1.34,12.23 4.03,16.28 2.68,4.06 6.51,6.09 11.48,6.09 v -74.19 h 13.74 v 46.91 z m 13.74,138.57 c 5.24,0 9.13,-2.16 11.68,-6.48 2.55,-4.32 3.83,-10.01 3.83,-17.07 v -52.41 c 0,-3.01 -0.33,-5.92 -0.98,-8.73 -0.66,-2.82 -1.64,-5.3 -2.95,-7.46 -1.31,-2.16 -2.91,-3.93 -4.81,-5.3 -1.89,-1.38 -4.09,-2.06 -6.57,-2.06 v 74.97 h -13.94 v -52.6 c 0,-2.88 -0.32,-5.66 -0.98,-8.34 -0.65,-2.68 -1.63,-5.07 -2.94,-7.17 -1.31,-2.09 -2.91,-3.76 -4.81,-5 -1.9,-1.24 -4.15,-1.86 -6.77,-1.86 h -12.37 c -2.88,0 -5.39,0.62 -7.55,1.86 -2.16,1.24 -3.93,2.91 -5.3,5 -1.38,2.1 -2.39,4.49 -3.05,7.17 -0.65,2.68 -0.98,5.53 -0.98,8.54 v 53.58 c 0,7.07 1.21,12.73 3.64,16.98 2.41,4.25 6.37,6.38 11.87,6.38 v -74.19 h 13.74 v 50.64 c 0,3 0.26,5.92 0.78,8.73 0.53,2.81 1.38,5.3 2.55,7.46 1.18,2.16 2.72,3.93 4.62,5.3 1.9,1.37 4.09,2.06 6.57,2.06 z m -5.1,188.43 c 3.53,0 6.54,-0.79 9.03,-2.36 2.48,-1.57 4.58,-3.7 6.28,-6.38 1.7,-2.68 2.98,-5.85 3.83,-9.52 0.85,-3.66 1.27,-7.52 1.27,-11.58 v -72.82 c 0,-3.92 -0.49,-7.65 -1.47,-11.18 -0.98,-3.54 -2.35,-6.65 -4.12,-9.33 -1.77,-2.68 -3.9,-4.81 -6.38,-6.38 -2.49,-1.57 -5.3,-2.35 -8.44,-2.35 h -57.9 c -2.88,0 -5.53,0.78 -7.95,2.35 -2.42,1.57 -4.51,3.7 -6.28,6.38 -1.77,2.68 -3.18,5.79 -4.22,9.33 -1.05,3.53 -1.57,7.32 -1.57,11.38 v 72.62 c 0,9.16 1.67,16.42 5.01,21.79 3.33,5.36 8.53,8.05 15.6,8.05 V 3528 h 57.5 v 66.54 h -18.44 v -23.55 c 0,-7.85 -1.64,-14.62 -4.91,-20.31 -3.27,-5.7 -7.33,-8.87 -12.17,-9.52 h -3.73 v 85.97 z m 20.61,83.21 -44.75,-35.13 v 38.27 h -13.74 v -49.85 h 40.82 c 6.94,0 11.65,-2.16 14.14,-6.47 1.17,-2.1 1.96,-4.52 2.35,-7.27 0.39,-2.75 0.59,-5.56 0.59,-8.44 v -2.55 h -73.41 v 76.55 c 0,6.93 1.34,12.39 4.03,16.39 2.68,3.99 6.51,5.98 11.48,5.98 h 13.93 c 4.71,0 8.41,-1.83 11.09,-5.49 2.69,-3.67 4.16,-8.9 4.42,-15.7 l 29.05,23.55 z m -87.93,99.32 v -11.19 l -29.25,6.09 v 13.94 z m 87.73,16.69 h -29.05 v -49.66 h 11.58 c 3.54,0 6.29,-0.56 8.25,-1.67 1.96,-1.11 3.66,-2.78 5.1,-5.01 1.31,-2.09 2.32,-4.58 3.04,-7.46 0.72,-2.87 1.08,-5.88 1.08,-9.02 v -1.57 h -57.51 c -2.87,0 -5.33,0.59 -7.35,1.76 -2.04,1.18 -3.7,2.82 -5.01,4.91 -1.31,2.09 -2.29,4.48 -2.95,7.16 -0.65,2.69 -0.98,5.53 -0.98,8.54 v 11.97 28.86 36.11 h 73.8 z m -58.29,0 v -49.66 h 13.74 v 49.66 z m -15.51,127.18 c 2.1,0 4.26,-0.36 6.48,-1.08 2.23,-0.72 3.99,-2.06 5.3,-4.02 1.31,-2.23 2.26,-4.74 2.85,-7.56 0.58,-2.81 0.88,-6.77 0.88,-11.87 v -41.22 h 13.74 v 29.83 h 15.5 v -29.83 h 11.78 c 6.93,0 11.64,-2.16 14.13,-6.48 1.31,-2.09 2.16,-4.51 2.55,-7.26 0.4,-2.75 0.59,-5.56 0.59,-8.44 v -2.55 h -58.29 c -3.93,0 -6.94,0.79 -9.03,2.36 -2.09,1.57 -3.63,3.43 -4.61,5.59 -0.98,2.16 -1.54,4.54 -1.67,7.16 -0.13,2.62 -0.2,5.04 -0.2,7.26 z m 73.8,33.76 c 0,-3.01 -0.36,-5.82 -1.08,-8.44 -0.72,-2.62 -1.76,-4.94 -3.14,-6.97 -1.37,-2.02 -2.98,-3.63 -4.8,-4.81 -1.84,-1.17 -3.93,-1.76 -6.29,-1.76 h -58.49 v 24.53 h 73.8 z m -58.29,113.64 c 2.75,0 4.84,-0.81 6.28,-2.45 1.44,-1.64 2.55,-3.17 3.34,-4.61 1.43,-2.23 2.52,-4.64 3.24,-7.26 0.71,-2.62 1.07,-5.43 1.07,-8.44 v -2.16 h -13.93 v -49.66 h 43.18 v 49.86 h -15.11 v 24.33 h 14.52 c 2.75,0 5.11,-0.59 7.07,-1.77 1.96,-1.17 3.56,-2.74 4.81,-4.7 1.24,-1.97 2.19,-4.32 2.84,-7.07 0.66,-2.75 0.98,-5.69 0.98,-8.83 v -54.57 c 0,-2.88 -0.36,-5.66 -1.08,-8.34 -0.72,-2.68 -1.76,-5.04 -3.14,-7.06 -1.37,-2.03 -2.98,-3.64 -4.8,-4.81 -1.84,-1.18 -3.93,-1.77 -6.29,-1.77 h -43.37 c -2.23,0 -4.25,0.59 -6.09,1.77 -1.83,1.17 -3.4,2.78 -4.71,4.81 -1.31,2.02 -2.35,4.38 -3.14,7.06 -0.78,2.68 -1.18,5.53 -1.18,8.54 v 54.37 c 0,6.94 1.34,12.46 4.03,16.58 2.68,4.13 6.51,6.18 11.48,6.18 z m 58.29,86.17 h -29.05 v -49.66 h 11.58 c 3.54,0 6.29,-0.55 8.25,-1.67 1.96,-1.11 3.66,-2.77 5.1,-5 1.31,-2.09 2.32,-4.58 3.04,-7.46 0.72,-2.88 1.08,-5.89 1.08,-9.03 v -1.57 h -57.51 c -2.87,0 -5.33,0.59 -7.35,1.77 -2.04,1.18 -3.7,2.81 -5.01,4.91 -1.31,2.09 -2.29,4.48 -2.95,7.16 -0.65,2.68 -0.98,5.53 -0.98,8.54 v 76.94 h 73.8 z m -58.29,0 v -49.66 h 13.74 v 49.66 z m 42.98,136.22 c 5.24,0 9.13,-2.16 11.68,-6.48 2.55,-4.32 3.83,-10.01 3.83,-17.08 v -52.4 c 0,-3.01 -0.33,-5.92 -0.98,-8.74 -0.66,-2.81 -1.64,-5.3 -2.95,-7.46 -1.31,-2.16 -2.91,-3.92 -4.81,-5.29 -1.89,-1.38 -4.09,-2.07 -6.57,-2.07 v 74.98 h -13.94 v -52.6 c 0,-2.88 -0.32,-5.66 -0.98,-8.34 -0.65,-2.68 -1.63,-5.07 -2.94,-7.16 -1.31,-2.1 -2.91,-3.77 -4.81,-5.01 -1.9,-1.24 -4.15,-1.87 -6.77,-1.87 h -12.37 c -2.88,0 -5.39,0.63 -7.55,1.87 -2.16,1.24 -3.93,2.91 -5.3,5.01 -1.38,2.09 -2.39,4.48 -3.05,7.16 -0.65,2.68 -0.98,5.53 -0.98,8.54 v 53.58 c 0,7.07 1.21,12.73 3.64,16.98 2.41,4.25 6.37,6.38 11.87,6.38 v -74.19 h 13.74 v 50.63 c 0,3.01 0.26,5.92 0.78,8.74 0.53,2.81 1.38,5.3 2.55,7.46 1.18,2.15 2.72,3.92 4.62,5.29 1.9,1.38 4.09,2.07 6.57,2.07 z m -13.74,128.16 v -46.91 h 13.94 v 74.2 c 2.62,0 4.87,-0.56 6.77,-1.67 1.9,-1.11 3.47,-2.68 4.71,-4.71 1.25,-2.03 2.16,-4.42 2.75,-7.17 0.59,-2.74 0.88,-5.69 0.88,-8.83 v -54.37 c 0,-3.01 -0.36,-5.85 -1.08,-8.54 -0.72,-2.68 -1.76,-5.03 -3.14,-7.06 -1.37,-2.03 -2.98,-3.63 -4.8,-4.81 -1.84,-1.18 -3.93,-1.77 -6.29,-1.77 h -43.18 c -2.22,0 -4.28,0.59 -6.18,1.77 -1.9,1.18 -3.5,2.78 -4.81,4.81 -1.31,2.03 -2.35,4.38 -3.14,7.06 -0.78,2.69 -1.18,5.47 -1.18,8.35 v 54.56 c 0,6.81 1.34,12.24 4.03,16.29 2.68,4.06 6.51,6.09 11.48,6.09 v -74.2 h 13.74 v 46.91 z m 29.05,182.93 h -38.66 v -66.34 h 15.3 c 4.85,0 8.58,-0.71 11.2,-2.16 2.61,-1.44 4.84,-3.66 6.67,-6.67 1.7,-2.74 3.04,-6.05 4.02,-9.91 0.98,-3.86 1.47,-7.88 1.47,-12.07 v -1.96 h -76.74 c -3.8,0 -7.03,0.78 -9.72,2.35 -2.68,1.57 -4.9,3.73 -6.67,6.48 -1.77,2.75 -3.07,5.92 -3.93,9.52 -0.85,3.6 -1.27,7.36 -1.27,11.28 v 102.66 h 98.33 z m -77.72,0 v -66.34 h 18.25 v 66.34 z m 62.41,143.88 c 2.62,0 4.88,-0.56 6.77,-1.67 1.9,-1.12 3.47,-2.72 4.72,-4.81 1.24,-2.1 2.19,-4.48 2.84,-7.17 0.66,-2.68 0.98,-5.59 0.98,-8.73 v -76.55 h -73.8 v 76.55 c 0,6.93 1.34,12.4 4.03,16.39 2.68,3.99 6.51,5.99 11.48,5.99 z m -42.98,-73.81 h 43.18 v 49.47 h -43.18 z m 29.24,157.22 v -46.91 h 13.94 v 74.2 c 2.62,0 4.87,-0.56 6.77,-1.67 1.9,-1.11 3.47,-2.68 4.71,-4.71 1.25,-2.03 2.16,-4.42 2.75,-7.17 0.59,-2.75 0.88,-5.69 0.88,-8.83 v -54.37 c 0,-3.01 -0.36,-5.85 -1.08,-8.54 -0.72,-2.68 -1.76,-5.03 -3.14,-7.06 -1.37,-2.03 -2.98,-3.64 -4.8,-4.81 -1.84,-1.18 -3.93,-1.77 -6.29,-1.77 h -43.18 c -2.22,0 -4.28,0.59 -6.18,1.77 -1.9,1.17 -3.5,2.78 -4.81,4.81 -1.31,2.03 -2.35,4.38 -3.14,7.06 -0.78,2.69 -1.18,5.46 -1.18,8.35 v 54.56 c 0,6.8 1.34,12.23 4.03,16.29 2.68,4.06 6.51,6.09 11.48,6.09 v -74.2 h 13.74 v 46.91 z m 13.74,138.57 c 5.24,0 9.13,-2.16 11.68,-6.47 2.55,-4.32 3.83,-10.01 3.83,-17.08 v -52.4 c 0,-3.02 -0.33,-5.93 -0.98,-8.74 -0.66,-2.81 -1.64,-5.3 -2.95,-7.45 -1.31,-2.17 -2.91,-3.93 -4.81,-5.31 -1.89,-1.37 -4.09,-2.06 -6.57,-2.06 v 74.98 h -13.94 v -52.6 c 0,-2.88 -0.32,-5.66 -0.98,-8.34 -0.65,-2.69 -1.63,-5.07 -2.94,-7.17 -1.31,-2.09 -2.91,-3.76 -4.81,-5 -1.9,-1.25 -4.15,-1.87 -6.77,-1.87 h -12.37 c -2.88,0 -5.39,0.62 -7.55,1.87 -2.16,1.24 -3.93,2.91 -5.3,5 -1.38,2.1 -2.39,4.48 -3.05,7.17 -0.65,2.68 -0.98,5.52 -0.98,8.54 v 53.58 c 0,7.06 1.21,12.72 3.64,16.97 2.41,4.26 6.37,6.38 11.87,6.38 v -74.19 h 13.74 v 50.64 c 0,3.01 0.26,5.92 0.78,8.74 0.53,2.81 1.38,5.3 2.55,7.45 1.18,2.16 2.72,3.93 4.62,5.3 1.9,1.38 4.09,2.06 6.57,2.06 z m 15.31,33.76 c 0,-3.01 -0.36,-5.82 -1.08,-8.44 -0.72,-2.61 -1.76,-4.94 -3.14,-6.96 -1.37,-2.03 -2.98,-3.63 -4.8,-4.81 -1.84,-1.18 -3.93,-1.77 -6.29,-1.77 h -58.49 v 24.54 h 73.8 z m -29.24,111.88 c 0.65,-0.13 1.76,-1.28 3.33,-3.43 1.57,-2.16 3.44,-4.84 5.6,-8.05 2.16,-3.21 4.41,-6.71 6.77,-10.5 2.36,-3.8 4.64,-7.49 6.87,-11.09 2.22,-3.6 4.15,-6.87 5.79,-9.82 1.64,-2.94 2.78,-5.07 3.43,-6.37 -0.65,-1.44 -1.79,-3.6 -3.43,-6.48 -1.64,-2.88 -3.57,-6.08 -5.79,-9.62 -2.23,-3.53 -4.51,-7.16 -6.87,-10.89 -2.36,-3.73 -4.61,-7.13 -6.77,-10.21 -2.16,-3.07 -4.03,-5.66 -5.6,-7.75 -1.57,-2.09 -2.68,-3.21 -3.33,-3.34 h -44.56 v 2.36 c 0,6.15 1.31,11.45 3.93,15.9 2.22,4.31 5.56,6.47 10.01,6.47 h 24.93 c 0.52,0 1.57,0.98 3.14,2.95 1.57,1.96 3.2,4.25 4.9,6.87 1.7,2.61 3.4,5.23 5.1,7.85 1.71,2.62 2.89,4.58 3.54,5.89 -0.79,1.17 -2,3.14 -3.63,5.89 -1.64,2.74 -3.37,5.49 -5.2,8.24 -1.83,2.74 -3.47,5.13 -4.91,7.16 -1.44,2.03 -2.42,3.04 -2.94,3.04 h -25.13 c -3.93,0 -7.26,2.29 -10.01,6.88 -2.48,4.31 -3.73,9.61 -3.73,15.89 v 2.16 z m 14.33,110.7 c 2.61,0 4.84,-0.59 6.67,-1.76 1.83,-1.18 3.37,-2.75 4.61,-4.72 1.25,-1.96 2.16,-4.31 2.75,-7.06 0.59,-2.75 0.88,-5.69 0.88,-8.84 v -54.56 c 0,-3.01 -0.36,-5.85 -1.08,-8.54 -0.72,-2.68 -1.76,-5 -3.14,-6.97 -1.37,-1.96 -2.94,-3.53 -4.71,-4.71 -1.77,-1.17 -3.82,-1.76 -6.18,-1.76 h -43.57 c -2.23,0 -4.29,0.59 -6.18,1.76 -1.91,1.18 -3.51,2.75 -4.82,4.71 -1.3,1.97 -2.32,4.29 -3.04,6.97 -0.72,2.69 -1.08,5.53 -1.08,8.54 v 54.56 c 0,6.68 1.31,12.08 3.93,16.2 2.62,4.12 6.41,6.18 11.38,6.18 z m -43.38,-24.53 v -49.66 h 43.18 v 49.66 z m 42.98,135.82 c 5.24,0 9.13,-2.16 11.68,-6.48 2.55,-4.31 3.83,-10.01 3.83,-17.07 v -52.41 c 0,-3.01 -0.33,-5.92 -0.98,-8.73 -0.66,-2.82 -1.64,-5.3 -2.95,-7.46 -1.31,-2.16 -2.91,-3.93 -4.81,-5.3 -1.89,-1.38 -4.09,-2.06 -6.57,-2.06 v 74.98 h -13.94 v -52.6 c 0,-2.89 -0.32,-5.67 -0.98,-8.35 -0.65,-2.68 -1.63,-5.07 -2.94,-7.16 -1.31,-2.1 -2.91,-3.76 -4.81,-5.01 -1.9,-1.24 -4.15,-1.86 -6.77,-1.86 h -12.37 c -2.88,0 -5.39,0.62 -7.55,1.86 -2.16,1.25 -3.93,2.91 -5.3,5.01 -1.38,2.09 -2.39,4.48 -3.05,7.16 -0.65,2.68 -0.98,5.53 -0.98,8.54 v 53.58 c 0,7.07 1.21,12.73 3.64,16.98 2.41,4.25 6.37,6.38 11.87,6.38 v -74.19 h 13.74 v 50.64 c 0,3.01 0.26,5.92 0.78,8.73 0.53,2.81 1.38,5.3 2.55,7.46 1.18,2.16 2.72,3.92 4.62,5.3 1.9,1.37 4.09,2.06 6.57,2.06 h 14.72"
         style="fill:#100f0e;fill-opacity:1;fill-rule:nonzero;stroke:none"
         id="path46" />
    </g>
  </g>
</svg>
